<mxfile host="65bd71144e">
    <diagram id="FkM_doxtFHGDlHRwQSCJ" name="Page-1">
        <mxGraphModel dx="543" dy="564" grid="1" gridSize="10" guides="1" tooltips="1" connect="1" arrows="1" fold="1" page="0" pageScale="1" pageWidth="827" pageHeight="1169" background="#000000" math="0" shadow="0">
            <root>
                <mxCell id="0"/>
                <mxCell id="1" parent="0"/>
                <mxCell id="5" style="edgeStyle=none;html=1;exitX=0.25;exitY=1;exitDx=0;exitDy=0;entryX=0.5;entryY=0;entryDx=0;entryDy=0;strokeColor=#FFFFFF;fontColor=#FFFFFF;" edge="1" parent="1" source="2" target="3">
                    <mxGeometry relative="1" as="geometry"/>
                </mxCell>
                <mxCell id="7" style="edgeStyle=none;html=1;exitX=0.75;exitY=1;exitDx=0;exitDy=0;entryX=0.75;entryY=0;entryDx=0;entryDy=0;strokeColor=#FFFFFF;fontColor=#FFFFFF;" edge="1" parent="1" source="2" target="4">
                    <mxGeometry relative="1" as="geometry"/>
                </mxCell>
                <mxCell id="2" value="Input" style="whiteSpace=wrap;html=1;fillColor=none;fontColor=#FFFFFF;strokeColor=#FFFFFF;" vertex="1" parent="1">
                    <mxGeometry x="354" y="40" width="120" height="60" as="geometry"/>
                </mxCell>
                <mxCell id="6" style="edgeStyle=none;html=1;exitX=0.5;exitY=1;exitDx=0;exitDy=0;entryX=0.25;entryY=0;entryDx=0;entryDy=0;strokeColor=#FFFFFF;fontColor=#FFFFFF;" edge="1" parent="1" source="3" target="4">
                    <mxGeometry relative="1" as="geometry"/>
                </mxCell>
                <mxCell id="3" value="speech-to-text" style="whiteSpace=wrap;html=1;fontColor=#FFFFFF;fillColor=none;strokeColor=#FFFFFF;" vertex="1" parent="1">
                    <mxGeometry x="280" y="140" width="120" height="60" as="geometry"/>
                </mxCell>
                <mxCell id="14" style="edgeStyle=none;html=1;exitX=0.5;exitY=1;exitDx=0;exitDy=0;entryX=0.5;entryY=0;entryDx=0;entryDy=0;strokeColor=#FFFFFF;fontColor=#FFFFFF;" edge="1" parent="1" source="4" target="9">
                    <mxGeometry relative="1" as="geometry"/>
                </mxCell>
                <mxCell id="15" style="edgeStyle=none;html=1;entryX=0.5;entryY=0;entryDx=0;entryDy=0;exitX=0.5;exitY=1;exitDx=0;exitDy=0;strokeColor=#FFFFFF;fontColor=#FFFFFF;" edge="1" parent="1" source="4" target="11">
                    <mxGeometry relative="1" as="geometry"/>
                </mxCell>
                <mxCell id="4" value="LLM" style="whiteSpace=wrap;html=1;fontColor=#FFFFFF;fillColor=none;strokeColor=#FFFFFF;" vertex="1" parent="1">
                    <mxGeometry x="354" y="240" width="120" height="60" as="geometry"/>
                </mxCell>
                <mxCell id="12" style="edgeStyle=none;html=1;exitX=0.5;exitY=1;exitDx=0;exitDy=0;entryX=0.25;entryY=0;entryDx=0;entryDy=0;strokeColor=#FFFFFF;fontColor=#FFFFFF;" edge="1" parent="1" source="9" target="10">
                    <mxGeometry relative="1" as="geometry"/>
                </mxCell>
                <mxCell id="9" value="text-to-speech" style="whiteSpace=wrap;html=1;fontStyle=1;fontColor=#FFFFFF;fillColor=none;strokeColor=#FFFFFF;" vertex="1" parent="1">
                    <mxGeometry x="274" y="370" width="120" height="60" as="geometry"/>
                </mxCell>
                <mxCell id="16" style="edgeStyle=orthogonalEdgeStyle;curved=1;html=1;exitX=1;exitY=0.5;exitDx=0;exitDy=0;entryX=1;entryY=0.5;entryDx=0;entryDy=0;strokeColor=#FFFFFF;fontColor=#FFFFFF;" edge="1" parent="1" source="10" target="2">
                    <mxGeometry relative="1" as="geometry">
                        <mxPoint x="700" y="250" as="targetPoint"/>
                        <Array as="points">
                            <mxPoint x="680" y="520"/>
                            <mxPoint x="680" y="70"/>
                        </Array>
                    </mxGeometry>
                </mxCell>
                <mxCell id="10" value="Output" style="whiteSpace=wrap;html=1;fontStyle=1;fontColor=#FFFFFF;fillColor=none;strokeColor=#FFFFFF;" vertex="1" parent="1">
                    <mxGeometry x="348" y="490" width="120" height="60" as="geometry"/>
                </mxCell>
                <mxCell id="13" style="edgeStyle=none;html=1;exitX=0.5;exitY=1;exitDx=0;exitDy=0;entryX=0.75;entryY=0;entryDx=0;entryDy=0;strokeColor=#FFFFFF;fontColor=#FFFFFF;" edge="1" parent="1" source="11" target="10">
                    <mxGeometry relative="1" as="geometry"/>
                </mxCell>
                <mxCell id="11" value="text-to-face" style="whiteSpace=wrap;html=1;fontStyle=1;fontColor=#FFFFFF;fillColor=none;strokeColor=#FFFFFF;" vertex="1" parent="1">
                    <mxGeometry x="434" y="370" width="120" height="60" as="geometry"/>
                </mxCell>
                <mxCell id="17" value="Visual, Audio,&lt;br&gt;Physical" style="text;strokeColor=#FFFFFF;align=center;fillColor=none;html=1;verticalAlign=middle;whiteSpace=wrap;rounded=0;fontColor=#FFFFFF;" vertex="1" parent="1">
                    <mxGeometry x="700" y="270" width="60" height="50" as="geometry"/>
                </mxCell>
            </root>
        </mxGraphModel>
    </diagram>
</mxfile>